<svg width="128" height="128" viewBox="0 0 128 128" fill="none" xmlns="http://www.w3.org/2000/svg">
<path d="M90.2919 1.17993H39.7081C33.2419 1.17993 28 6.42168 28 12.8879V115.334C28 121.8 33.2419 127.042 39.7081 127.042H90.2919C96.7581 127.042 102 121.8 102 115.334V12.8879C102 6.42168 96.7581 1.17993 90.2919 1.17993Z" fill="#48464C"/>
<path d="M89.9177 3.25854H40.0822C33.7117 3.25854 28.5474 8.42271 28.5474 14.7932V115.724C28.5474 122.095 33.7117 127.259 40.0822 127.259H89.9177C96.2883 127.259 101.453 122.095 101.453 115.724V14.7932C101.453 8.42271 96.2883 3.25854 89.9177 3.25854Z" fill="#3D3846"/>
<path d="M89.6852 9.11865H77.4888C74.1209 9.11865 71.3906 11.8489 71.3906 15.2168C71.3906 18.5848 74.1209 21.315 77.4888 21.315H89.6852C93.0531 21.315 95.7835 18.5848 95.7835 15.2168C95.7835 11.8489 93.0531 9.11865 89.6852 9.11865Z" fill="#241F31"/>
<path opacity="0.664" d="M89.6259 10.6551C92.1741 10.6551 94.2398 12.7208 94.2398 15.2689C94.2398 17.8171 92.1741 19.8828 89.6259 19.8828C87.0777 19.8828 85.012 17.8171 85.012 15.2689C85.012 12.7208 87.0777 10.6551 89.6259 10.6551Z" fill="url(#paint0_linear_163_672)"/>
<path d="M89.6258 10.1018C92.4798 10.1018 94.7933 12.4153 94.7933 15.2693C94.7933 18.1232 92.4798 20.4368 89.6258 20.4368C86.7719 20.4368 84.4583 18.1232 84.4583 15.2693C84.4583 12.4153 86.7719 10.1018 89.6258 10.1018Z" fill="black"/>
<path d="M89.6259 10.6551C92.1741 10.6551 94.2398 12.7208 94.2398 15.2689C94.2398 17.8171 92.1741 19.8828 89.6259 19.8828C87.0777 19.8828 85.012 17.8171 85.012 15.2689C85.012 12.7208 87.0777 10.6551 89.6259 10.6551Z" fill="url(#paint1_radial_163_672)"/>
<path d="M89.6258 13.2388C90.747 13.2388 91.6559 14.1478 91.6559 15.2689C91.6559 16.3901 90.747 17.2991 89.6258 17.2991C88.5046 17.2991 87.5957 16.3901 87.5957 15.2689C87.5957 14.1478 88.5046 13.2388 89.6258 13.2388Z" fill="#15365F"/>
<path d="M88.149 12.1312C88.9644 12.1312 89.6255 12.7923 89.6255 13.6077C89.6255 14.4231 88.9644 15.0842 88.149 15.0842C87.3336 15.0842 86.6726 14.4231 86.6726 13.6077C86.6726 12.7923 87.3336 12.1312 88.149 12.1312Z" fill="#2864B0"/>
<path d="M91.8405 16.561C92.2483 16.561 92.5788 16.8915 92.5788 17.2992C92.5788 17.7069 92.2483 18.0374 91.8405 18.0374C91.4328 18.0374 91.1023 17.7069 91.1023 17.2992C91.1023 16.8915 91.4328 16.561 91.8405 16.561Z" fill="#2864B0"/>
<path d="M90.7332 15.8224C90.937 15.8224 91.1023 15.9876 91.1023 16.1915C91.1023 16.3953 90.937 16.5605 90.7332 16.5605C90.5293 16.5605 90.364 16.3953 90.364 16.1915C90.364 15.9876 90.5293 15.8224 90.7332 15.8224Z" fill="#2864B0"/>
<defs>
<linearGradient id="paint0_linear_163_672" x1="89.6259" y1="8.34802" x2="89.6259" y2="15.7302" gradientUnits="userSpaceOnUse">
<stop stop-color="white"/>
<stop offset="1" stop-color="#4A86CF" stop-opacity="0"/>
</linearGradient>
<radialGradient id="paint1_radial_163_672" cx="0" cy="0" r="1" gradientUnits="userSpaceOnUse" gradientTransform="translate(89.6911 19.8822) scale(13.4227 13.4226)">
<stop stop-color="#1A4172"/>
<stop offset="1"/>
</radialGradient>
</defs>
</svg>
