<svg width="128" height="128" viewBox="0 0 128 128" fill="none" xmlns="http://www.w3.org/2000/svg">
<path d="M13.6884 4H113.311C118.662 4 123 8.3377 123 13.6885V113.312C123 118.662 118.662 123 113.311 123H13.6884C8.33761 123 3.99991 118.662 3.99991 113.312V13.6885C3.99991 8.3377 8.33761 4 13.6884 4Z" fill="#E5D3C4"/>
<path d="M122.868 27.7998H3.99982V113.48C3.99982 114.73 4.24605 115.968 4.72447 117.123C5.20289 118.278 5.90415 119.327 6.78816 120.212C7.67217 121.096 8.72167 121.797 9.87669 122.275C11.0317 122.754 12.2696 123 13.5198 123H113.348C114.598 123 115.836 122.754 116.991 122.275C118.146 121.797 119.196 121.096 120.08 120.212C120.964 119.327 121.665 118.278 122.143 117.123C122.622 115.968 122.868 114.73 122.868 113.48V27.7998Z" fill="#CDAB8F"/>
<path d="M80.1602 4H46.8401V61.12L80.1602 75.4001V4Z" fill="#986A44"/>
<path d="M46.8401 4H80.1602V27.8H46.8401V4Z" fill="#B5835A"/>
</svg>
