<svg width="128" height="128" viewBox="0 0 128 128" fill="none" xmlns="http://www.w3.org/2000/svg">
<path opacity="0.154797" d="M66.6096 0.333496C60.6449 0.334093 54.8775 3.77961 50.3527 10.0457C45.8279 16.3118 42.8449 24.984 41.9443 34.4908H41.9761C41.7738 35.775 41.6658 37.0913 41.6658 38.4342V76.4627C41.6658 90.2841 52.7927 101.411 66.614 101.411H66.6154C80.4367 101.411 91.5636 90.2841 91.5636 76.4627V38.4342C91.5636 37.0913 91.4556 35.775 91.2533 34.4908H91.2778C90.3771 24.9832 87.3938 16.3104 82.8683 10.0442C78.3429 3.77799 72.5749 0.332979 66.6096 0.333496Z" fill="black"/>
<mask id="mask0_163_603" style="mask-type:luminance" maskUnits="userSpaceOnUse" x="53" y="91" width="26" height="35">
<path d="M78.8693 100.249C78.8693 110.979 66.256 125.975 66.256 125.975C66.256 125.975 53.6426 111.003 53.6426 100.249C53.6426 95.6532 59.2899 91.9275 66.256 91.9275C73.2221 91.9275 78.8693 95.6532 78.8693 100.249Z" fill="white"/>
</mask>
<g mask="url(#mask0_163_603)">
<path d="M78.8693 100.249C78.8693 110.979 66.256 125.975 66.256 125.975C66.256 125.975 53.6426 111.003 53.6426 100.249C53.6426 95.6532 59.2896 91.9275 66.256 91.9275C73.2221 91.9275 78.8693 95.6532 78.8693 100.249Z" fill="url(#paint0_linear_163_603)"/>
<path d="M66.2562 112.625C79.5817 112.625 90.384 105.498 90.384 96.7068C90.384 87.9155 79.5817 80.7888 66.2562 80.7888C52.9308 80.7888 42.1284 87.9155 42.1284 96.7068C42.1284 105.498 52.9308 112.625 66.2562 112.625Z" fill="url(#paint1_radial_163_603)"/>
<path d="M66.2559 106.183C74.1881 106.183 80.6184 101.941 80.6184 96.7074C80.6184 91.4743 74.1881 87.2319 66.2559 87.2319C58.3236 87.2319 51.8933 91.4743 51.8933 96.7074C51.8933 101.941 58.3236 106.183 66.2559 106.183Z" fill="url(#paint2_radial_163_603)"/>
<path d="M66.256 100.049C69.0535 100.049 71.3213 98.5526 71.3213 96.707C71.3213 94.8614 69.0535 93.3652 66.256 93.3652C63.4585 93.3652 61.1907 94.8614 61.1907 96.707C61.1907 98.5526 63.4585 100.049 66.256 100.049Z" fill="white"/>
</g>
<path d="M65.9039 13.4868H65.9035C52.125 13.4868 40.9553 24.6565 40.9553 38.435V76.4626C40.9553 90.2411 52.125 101.411 65.9035 101.411H65.9039C79.6824 101.411 90.8521 90.2411 90.8521 76.4626V38.435C90.8521 24.6565 79.6824 13.4868 65.9039 13.4868Z" fill="#F6F5F4"/>
<path d="M65.9039 70.7114C73.2285 70.7114 79.1662 64.7736 79.1662 57.4491C79.1662 50.1245 73.2285 44.1868 65.9039 44.1868C58.5793 44.1868 52.6416 50.1245 52.6416 57.4491C52.6416 64.7736 58.5793 70.7114 65.9039 70.7114Z" fill="white"/>
<path d="M65.9037 66.9653C71.1592 66.9653 75.4197 62.7049 75.4197 57.4493C75.4197 52.1938 71.1592 47.9333 65.9037 47.9333C60.6481 47.9333 56.3877 52.1938 56.3877 57.4493C56.3877 62.7049 60.6481 66.9653 65.9037 66.9653Z" fill="#5E5C64"/>
<path d="M65.904 13.4868C63.8893 13.4868 61.9348 13.7296 60.0605 14.1762C71.0438 16.7937 79.1667 26.6281 79.1667 38.4354V76.4626C79.1667 88.2695 71.0438 98.1039 60.0605 100.721C61.9747 101.179 63.9359 101.41 65.904 101.411C79.7253 101.411 90.8522 90.2839 90.8522 76.4626V38.4354C90.8522 24.6138 79.7253 13.4868 65.904 13.4868Z" fill="#C0BFBC" fill-opacity="0.17"/>
<path d="M66.1406 5.36642e-10C60.1173 0.000230504 54.2933 3.47929 49.724 9.80674C45.1547 16.1342 42.1424 24.8914 41.2329 34.4914H91.0491C90.1396 24.8912 87.1272 16.1338 82.5577 9.80634C77.9882 3.47887 72.1641 -4.98913e-05 66.1406 5.36642e-10Z" fill="#ED333B"/>
<path d="M44.6859 82.0783L47.9424 90.4087C49.1162 93.4113 49.1352 96.7424 47.9957 99.7582C46.8563 102.774 44.6393 105.26 41.7734 106.737L30.945 112.315C30.1143 112.743 29.1875 112.95 28.2536 112.916C27.3197 112.883 26.4102 112.61 25.6123 112.123C24.8144 111.637 24.1551 110.953 23.6976 110.138C23.2401 109.324 22.9999 108.405 23 107.47V102.923C23 101.071 23.3884 99.2402 24.1403 97.5482C24.8922 95.8563 25.9908 94.3409 27.3651 93.1001L40.6331 81.1214C40.9371 80.847 41.3031 80.6505 41.6998 80.5487C42.0965 80.4469 42.5119 80.4429 42.9105 80.537C43.3091 80.6311 43.6788 80.8205 43.9881 81.089C44.2973 81.3575 44.5368 81.6969 44.6859 82.0783Z" fill="black" fill-opacity="0.0937181"/>
<path d="M44.6859 80.6003L47.9424 88.9307C49.1162 91.9333 49.1352 95.2644 47.9957 98.2802C46.8563 101.296 44.6393 103.782 41.7734 105.259L30.945 110.837C30.1143 111.265 29.1875 111.472 28.2536 111.438C27.3197 111.405 26.4102 111.132 25.6123 110.645C24.8144 110.159 24.1551 109.475 23.6976 108.66C23.2401 107.846 22.9999 106.927 23 105.992V101.445C23 99.5931 23.3884 97.7622 24.1403 96.0702C24.8922 94.3782 25.9908 92.8629 27.3651 91.6221L40.6331 79.6434C40.9371 79.369 41.3031 79.1725 41.6998 79.0707C42.0965 78.9689 42.5119 78.9648 42.9105 79.0589C43.3091 79.153 43.6788 79.3425 43.9881 79.6109C44.2973 79.8794 44.5368 80.2189 44.6859 80.6003Z" fill="#B0AFAC"/>
<path d="M87.3137 82.0783L84.0571 90.4087C82.8834 93.4113 82.8644 96.7424 84.0039 99.7582C85.1433 102.774 87.3602 105.26 90.2262 106.737L101.055 112.315C101.886 112.743 102.812 112.95 103.746 112.916C104.68 112.883 105.59 112.61 106.388 112.123C107.186 111.637 107.845 110.953 108.302 110.138C108.76 109.324 109 108.405 109 107.47V102.923C109 101.071 108.611 99.2401 107.859 97.5481C107.107 95.8562 106.009 94.3409 104.634 93.1001L91.3665 81.1214C91.0625 80.847 90.6964 80.6505 90.2998 80.5487C89.9031 80.4469 89.4877 80.4429 89.0891 80.537C88.6905 80.6311 88.3208 80.8205 88.0115 81.089C87.7023 81.3575 87.4628 81.6969 87.3137 82.0783Z" fill="black" fill-opacity="0.0937181"/>
<path d="M67.7627 83.5862C67.7627 82.5598 66.9306 81.7278 65.9043 81.7278C64.8779 81.7278 64.0459 82.5598 64.0459 83.5862V114.865C64.0459 115.891 64.8779 116.723 65.9043 116.723C66.9306 116.723 67.7627 115.891 67.7627 114.865V83.5862Z" fill="#DEDDDA"/>
<path d="M70.7847 0.884521C75.2462 9.90715 78.1689 21.7062 79.1093 34.4912H91.3408C90.5469 26.1124 88.132 18.3518 84.4406 12.3168C80.7492 6.28188 75.9699 2.28082 70.7847 0.884521Z" fill="#E01B24"/>
<path d="M87.3137 80.6003L84.0571 88.9307C82.8834 91.9333 82.8644 95.2644 84.0039 98.2802C85.1433 101.296 87.3602 103.782 90.2262 105.259L101.055 110.837C101.886 111.265 102.812 111.472 103.746 111.438C104.68 111.405 105.59 111.132 106.388 110.645C107.186 110.159 107.845 109.475 108.302 108.66C108.76 107.846 109 106.927 109 105.992V101.445C109 99.593 108.611 97.7621 107.859 96.0701C107.107 94.3782 106.009 92.8628 104.634 91.6221L91.3665 79.6434C91.0625 79.369 90.6964 79.1725 90.2998 79.0707C89.9031 78.9689 89.4877 78.9648 89.0891 79.0589C88.6905 79.153 88.3208 79.3425 88.0115 79.6109C87.7023 79.8794 87.4628 80.2189 87.3137 80.6003Z" fill="white"/>
<defs>
<linearGradient id="paint0_linear_163_603" x1="66.2411" y1="98.0348" x2="66.2411" y2="131.728" gradientUnits="userSpaceOnUse">
<stop stop-color="#E01B24"/>
<stop offset="1" stop-color="#E01B24" stop-opacity="0"/>
</linearGradient>
<radialGradient id="paint1_radial_163_603" cx="0" cy="0" r="1" gradientUnits="userSpaceOnUse" gradientTransform="translate(66.2568 96.7072) scale(24.1281 15.9182)">
<stop stop-color="#E5A50A"/>
<stop offset="1" stop-color="#E5A50A" stop-opacity="0"/>
</radialGradient>
<radialGradient id="paint2_radial_163_603" cx="0" cy="0" r="1" gradientUnits="userSpaceOnUse" gradientTransform="translate(66.2548 96.7066) scale(14.3625 9.4755)">
<stop stop-color="white"/>
<stop offset="1" stop-color="white" stop-opacity="0"/>
</radialGradient>
</defs>
</svg>
