<?xml version="1.0" encoding="UTF-8" standalone="no"?>
<svg
   width="16"
   height="16"
   version="1.1"
   id="svg1"
   xmlns="http://www.w3.org/2000/svg"
   xmlns:svg="http://www.w3.org/2000/svg">
  <defs
     id="defs1" />
  <path
     d="M 1.53,0.469 0.468,1.529 0.472,1.533 0.474,1.529 14.472,15.527 15.53,14.469 14.999,13.938 V 8 A 7.007,7.007 0 0 0 7.992,0.992 6.97,6.97 0 0 0 3.604,2.543 Z M 1.719,4.896 A 7,7 0 0 0 1,8 v 5.988 c 0,0.555 0.45,1.004 1.004,1.004 0.55,-0.004 1,-0.453 0.996,-1.004 v -0.992 c 0,-0.555 0.45,-1.004 1.004,-1.004 0.55,0.004 1,0.453 0.996,1.004 v 0.992 c 0,0.555 0.45,1.004 1.004,1.004 0.55,-0.004 1,-0.453 0.996,-1.004 v -0.992 c 0,-0.555 0.45,-1.004 1.004,-1.004 0.55,0.004 1,0.453 0.996,1.004 v 0.992 c 0,0.555 0.45,1.004 1.004,1.004 0.491,-0.003 0.902,-0.36 0.982,-0.828 z M 10,4.992 c 0.555,0 1,0.445 1,1 v 1 c 0,0.555 -0.445,1 -1,1 -0.555,0 -1,-0.445 -1,-1 v -1 c 0,-0.555 0.445,-1 1,-1 M 6.055,4.994 c 0.51,0.028 0.916,0.433 0.943,0.944 z"
     id="path1" />
</svg>
