<?xml version="1.0" encoding="UTF-8"?>
<svg height="16px" viewBox="0 0 16 16" width="16px" xmlns="http://www.w3.org/2000/svg" xmlns:xlink="http://www.w3.org/1999/xlink">
    <filter id="a" height="100%" width="100%" x="0%" y="0%">
        <feColorMatrix color-interpolation-filters="sRGB" values="0 0 0 0 1 0 0 0 0 1 0 0 0 0 1 0 0 0 1 0"/>
    </filter>
    <mask id="b">
        <g filter="url(#a)">
            <rect fill-opacity="0.5" height="19.2" width="19.2" x="-1.6" y="-1.6"/>
        </g>
    </mask>
    <clipPath id="c">
        <rect height="152" width="192"/>
    </clipPath>
    <g mask="url(#b)">
        <g clip-path="url(#c)" transform="matrix(1 0 0 1 -168 -16)">
            <path d="m 59 70 h 24 c 3.3125 0 6 2.6875 6 6 v 8 c 0 3.3125 -2.6875 6 -6 6 h -24 c -3.3125 0 -6 -2.6875 -6 -6 v -8 c 0 -3.3125 2.6875 -6 6 -6 z m 0 0" fill="#8ff0a4"/>
        </g>
    </g>
    <path d="m 3 2.375 c -0.550781 0 -1 0.449219 -1 1 v 10.25 c 0 1.296875 1.078125 2.375 2.375 2.375 h 7.25 c 1.296875 0 2.375 -1.078125 2.375 -2.375 v -10.25 c 0 -0.550781 -0.449219 -1 -1 -1 s -1 0.449219 -1 1 v 10.25 c 0 0.226562 -0.148438 0.375 -0.375 0.375 h -7.25 c -0.226562 0 -0.375 -0.148438 -0.375 -0.375 v -10.25 c 0 -0.550781 -0.449219 -1 -1 -1 z m 0 0"/>
    <path d="m 3 8 v 7 h 10 v -7 z m 5 2 c 0.550781 0 1 0.449219 1 1 s -0.449219 1 -1 1 s -1 -0.449219 -1 -1 s 0.449219 -1 1 -1 z m -2 2 c 0.113281 0 0.226562 0.054688 0.289062 0.167969 l 0.773438 1.332031 c 0.0625 0.101562 0.0625 0.230469 0 0.332031 c -0.058594 0.101563 -0.167969 0.167969 -0.289062 0.167969 h -1.546876 c -0.257812 0 -0.421874 -0.28125 -0.289062 -0.5 l 0.773438 -1.332031 c 0.0625 -0.113281 0.175781 -0.167969 0.289062 -0.167969 z m 3.417969 0 h 1.164062 c 0.234375 0 0.417969 0.183594 0.417969 0.417969 v 1.164062 c 0 0.234375 -0.183594 0.417969 -0.417969 0.417969 h -1.164062 c -0.234375 0 -0.417969 -0.183594 -0.417969 -0.417969 v -1.164062 c 0 -0.234375 0.183594 -0.417969 0.417969 -0.417969 z m 0 0"/>
    <path d="m 10.5 4 c 0 1.378906 -1.121094 2.5 -2.5 2.5 s -2.5 -1.121094 -2.5 -2.5 s 1.121094 -2.5 2.5 -2.5 s 2.5 1.121094 2.5 2.5 z m 0 0"/>
    <path d="m 15 4 c 0 1.378906 -1.121094 2.5 -2.5 2.5 s -2.5 -1.121094 -2.5 -2.5 s 1.121094 -2.5 2.5 -2.5 s 2.5 1.121094 2.5 2.5 z m 0 0"/>
    <path d="m 6 4 c 0 1.378906 -1.121094 2.5 -2.5 2.5 s -2.5 -1.121094 -2.5 -2.5 s 1.121094 -2.5 2.5 -2.5 s 2.5 1.121094 2.5 2.5 z m 0 0"/>
    <path d="m 3 0 c -1.109375 0 -2 0.890625 -2 2 v 2 h 14 v -2 c 0 -1.109375 -0.890625 -2 -2 -2 z m 0 0"/>
</svg>
