<?xml version="1.0" encoding="UTF-8"?>
<svg height="128px" viewBox="0 0 128 128" width="128px" xmlns="http://www.w3.org/2000/svg" xmlns:xlink="http://www.w3.org/1999/xlink">
    <defs>
        <filter id="a" height="100%" width="100%" x="0%" y="0%">
            <feColorMatrix color-interpolation-filters="sRGB" values="0 0 0 0 1 0 0 0 0 1 0 0 0 0 1 0 0 0 1 0"/>
        </filter>
        <linearGradient id="b" gradientUnits="userSpaceOnUse">
            <stop offset="0" stop-color="#b5835a"/>
            <stop offset="1" stop-color="#63452c"/>
        </linearGradient>
        <linearGradient id="c" x1="20" x2="32" xlink:href="#b" y1="110.499878" y2="110.499878"/>
        <linearGradient id="d" x1="96" x2="108" xlink:href="#b" y1="110.499878" y2="110.499878"/>
        <linearGradient id="e" gradientTransform="matrix(-1 0 0 -1 0 -172)" gradientUnits="userSpaceOnUse" x1="-116" x2="-12" y1="-245.999847" y2="-245.999847">
            <stop offset="0" stop-color="#865e3c"/>
            <stop offset="0.0576923" stop-color="#b5835a"/>
            <stop offset="0.115385" stop-color="#865e3c"/>
            <stop offset="0.884615" stop-color="#865e3c"/>
            <stop offset="0.942308" stop-color="#b5835a"/>
            <stop offset="1" stop-color="#865e3c"/>
        </linearGradient>
        <linearGradient id="f" gradientTransform="matrix(0.75 0 0 0.708334 15 -73.500076)" gradientUnits="userSpaceOnUse" x1="84" x2="46" y1="230" y2="178">
            <stop offset="0" stop-color="#1a5fb4"/>
            <stop offset="1" stop-color="#8ff0a4"/>
        </linearGradient>
        <mask id="g">
            <g filter="url(#a)">
                <rect fill-opacity="0.5" height="153.6" width="153.6" x="-12.8" y="-12.8"/>
            </g>
        </mask>
        <radialGradient id="h" cx="77.852409" cy="217.993195" gradientTransform="matrix(1.534722 0.0052174 -0.00481603 1.416658 -40.098614 -231.728088)" gradientUnits="userSpaceOnUse" r="24">
            <stop offset="0" stop-color="#f0d7ff"/>
            <stop offset="0.275862" stop-color="#dc8add"/>
            <stop offset="1" stop-color="#1a5fb4"/>
        </radialGradient>
        <radialGradient id="i" cx="36" cy="208.726547" gradientTransform="matrix(1.458334 0.00000033 -0.00000005 1.250001 -11.834683 -187.575045)" gradientUnits="userSpaceOnUse" r="23.999998">
            <stop offset="0" stop-color="#f8e45c"/>
            <stop offset="1" stop-color="#f8e45c" stop-opacity="0"/>
        </radialGradient>
        <clipPath id="j">
            <path d="m 0 0 h 128 v 128 h -128 z m 0 0"/>
        </clipPath>
        <mask id="k">
            <g filter="url(#a)">
                <rect fill-opacity="0.5" height="221.184" width="221.184" x="-46.592" y="-46.592"/>
            </g>
        </mask>
        <clipPath id="l">
            <rect height="152" width="192"/>
        </clipPath>
        <g id="m" clip-path="url(#l)">
            <path d="m 59 70 h 24 c 3.3125 0 6 2.6875 6 6 v 8 c 0 3.3125 -2.6875 6 -6 6 h -24 c -3.3125 0 -6 -2.6875 -6 -6 v -8 c 0 -3.3125 2.6875 -6 6 -6 z m 0 0" fill="#8ff0a4"/>
        </g>
        <clipPath id="n">
            <rect height="128" width="128"/>
        </clipPath>
        <clipPath id="o">
            <rect height="128" width="128"/>
        </clipPath>
        <mask id="p">
            <g filter="url(#a)">
                <g clip-path="url(#o)" filter="url(#a)">
                    <g clip-path="url(#n)">
                        <path d="m 26 98 c 3.3125 0 6 2.6875 6 6 v 13 c 0 3.3125 -2.6875 6 -6 6 s -6 -2.6875 -6 -6 v -13 c 0 -3.3125 2.6875 -6 6 -6 z m 0 0" fill="url(#c)"/>
                        <path d="m 102 98 c 3.3125 0 6 2.6875 6 6 v 13 c 0 3.3125 -2.6875 6 -6 6 s -6 -2.6875 -6 -6 v -13 c 0 -3.3125 2.6875 -6 6 -6 z m 0 0" fill="url(#d)"/>
                        <path d="m 104 116 h -80 c -6.628906 0 -12 -5.371094 -12 -12 v -60 c 0 -6.628906 5.371094 -12 12 -12 h 80 c 6.628906 0 12 5.371094 12 12 v 60 c 0 6.628906 -5.371094 12 -12 12 z m 0 0" fill="url(#e)"/>
                        <path d="m 104 104 h -80 c -6.628906 0 -12 -5.371094 -12 -12 v -48 c 0 -6.628906 5.371094 -12 12 -12 h 80 c 6.628906 0 12 5.371094 12 12 v 48 c 0 6.628906 -5.371094 12 -12 12 z m 0 0" fill="#b5835a"/>
                        <path d="m 20 40 h 88 v 32 h -88 z m 0 0" fill="#63452c"/>
                        <path d="m 20 32 h -8 v 32 h 8 z m 0 0" fill="#865e3c"/>
                        <path d="m 116 32 h -8 v 32 h 8 z m 0 0" fill="#865e3c"/>
                        <path d="m 20 72 h 88 v 8 h -88 z m 0 0" fill="#865e3c"/>
                        <path d="m 104 96 h -80 c -2.210938 0 -4 -1.789062 -4 -4 v -8 c 0 -2.210938 1.789062 -4 4 -4 h 80 c 2.210938 0 4 1.789062 4 4 v 8 c 0 2.210938 -1.789062 4 -4 4 z m 0 0" fill="#986a44"/>
                        <path d="m 20 88 h 88 v -8 h -88 z m 0 0" fill="#986a44"/>
                        <path d="m 51 54 h 24 c 3.3125 0 6 2.6875 6 6 v 22 c 0 3.3125 -2.6875 6 -6 6 h -24 c -3.3125 0 -6 -2.6875 -6 -6 v -22 c 0 -3.3125 2.6875 -6 6 -6 z m 0 0" fill="url(#f)"/>
                        <g clip-path="url(#j)">
                            <g mask="url(#k)">
                                <use transform="matrix(1 0 0 1 -8 -16)" xlink:href="#m"/>
                            </g>
                        </g>
                        <path d="m 84 69 c 9.386719 0 17 7.613281 17 17 s -7.613281 17 -17 17 s -17 -7.613281 -17 -17 s 7.613281 -17 17 -17 z m 0 0" fill="url(#h)"/>
                        <path d="m 63.195312 103.039062 c 1.070313 -1.867187 1.0625 -4.160156 -0.015624 -6.019531 l -13.984376 -24.035156 c -2.324218 -3.980469 -8.070312 -3.980469 -10.386718 0 l -13.992188 24.035156 c -2.332031 4.003907 0.5625 9.035157 5.195313 9.035157 h 27.976562 c 2.148438 0 4.136719 -1.148438 5.207031 -3.015626 z m 0 0" fill="#e01b24"/>
                        <path d="m 63.195312 103.039062 c 1.070313 -1.867187 1.0625 -4.160156 -0.015624 -6.019531 l -13.984376 -24.035156 c -2.324218 -3.980469 -8.070312 -3.980469 -10.386718 0 l -13.992188 24.035156 c -2.332031 4.003907 0.5625 9.035157 5.195313 9.035157 h 27.976562 c 2.148438 0 4.136719 -1.148438 5.207031 -3.015626 z m 0 0" fill="url(#i)"/>
                        <path d="m 24 108 h 80 v -8 h -80 z m 0 0" fill="#865e3c"/>
                        <path d="m 24 104 h 80 v -8 h -80 z m 0 0" fill="#b5835a"/>
                        <path d="m 88 42 c 6.628906 0 12 5.371094 12 12 s -5.371094 12 -12 12 s -12 -5.371094 -12 -12 s 5.371094 -12 12 -12 z m 0 0" fill="#deddda"/>
                        <path d="m 64 42 c 6.628906 0 12 5.371094 12 12 s -5.371094 12 -12 12 s -12 -5.371094 -12 -12 s 5.371094 -12 12 -12 z m 0 0" fill="#ed333b"/>
                        <path d="m 16 42 c 6.628906 0 12 5.371094 12 12 s -5.371094 12 -12 12 s -12 -5.371094 -12 -12 s 5.371094 -12 12 -12 z m 0 0" fill="#ed333b"/>
                        <path d="m 40 42 c 6.628906 0 12 5.371094 12 12 s -5.371094 12 -12 12 s -12 -5.371094 -12 -12 s 5.371094 -12 12 -12 z m 0 0" fill="#deddda"/>
                        <path d="m 112 42 c 6.628906 0 12 5.371094 12 12 s -5.371094 12 -12 12 s -12 -5.371094 -12 -12 s 5.371094 -12 12 -12 z m 0 0" fill="#ed333b"/>
                        <path d="m 10 12 c -3.324219 0 -6 2.675781 -6 6 v 36 h 120 v -36 c 0 -3.324219 -2.675781 -6 -6 -6 z m 0 0" fill="#f66151"/>
                        <path d="m 28 12 v 42 h 24 v -42 z m 48 0 v 42 h 24 v -42 z m 0 0" fill="#f6f5f4"/>
                    </g>
                </g>
            </g>
        </mask>
        <mask id="q">
            <g filter="url(#a)">
                <rect fill-opacity="0.8" height="184.32" width="184.32" x="-28.16" y="-28.16"/>
            </g>
        </mask>
        <linearGradient id="r" gradientTransform="matrix(0 0.37 -0.98462 0 295.38501 -30.360001)" gradientUnits="userSpaceOnUse" x1="300" x2="428" y1="235" y2="235">
            <stop offset="0" stop-color="#f9f06b"/>
            <stop offset="1" stop-color="#f5c211"/>
        </linearGradient>
        <clipPath id="s">
            <rect height="128" width="128"/>
        </clipPath>
        <clipPath id="t">
            <rect height="128" width="128"/>
        </clipPath>
    </defs>
    <path d="m 26 98 c 3.3125 0 6 2.6875 6 6 v 13 c 0 3.3125 -2.6875 6 -6 6 s -6 -2.6875 -6 -6 v -13 c 0 -3.3125 2.6875 -6 6 -6 z m 0 0" fill="url(#c)"/>
    <path d="m 102 98 c 3.3125 0 6 2.6875 6 6 v 13 c 0 3.3125 -2.6875 6 -6 6 s -6 -2.6875 -6 -6 v -13 c 0 -3.3125 2.6875 -6 6 -6 z m 0 0" fill="url(#d)"/>
    <path d="m 104 116 h -80 c -6.628906 0 -12 -5.371094 -12 -12 v -60 c 0 -6.628906 5.371094 -12 12 -12 h 80 c 6.628906 0 12 5.371094 12 12 v 60 c 0 6.628906 -5.371094 12 -12 12 z m 0 0" fill="url(#e)"/>
    <path d="m 104 104 h -80 c -6.628906 0 -12 -5.371094 -12 -12 v -48 c 0 -6.628906 5.371094 -12 12 -12 h 80 c 6.628906 0 12 5.371094 12 12 v 48 c 0 6.628906 -5.371094 12 -12 12 z m 0 0" fill="#b5835a"/>
    <path d="m 20 40 h 88 v 32 h -88 z m 0 0" fill="#63452c"/>
    <g fill="#865e3c">
        <path d="m 20 32 h -8 v 32 h 8 z m 0 0"/>
        <path d="m 116 32 h -8 v 32 h 8 z m 0 0"/>
        <path d="m 20 72 h 88 v 8 h -88 z m 0 0"/>
    </g>
    <path d="m 104 96 h -80 c -2.210938 0 -4 -1.789062 -4 -4 v -8 c 0 -2.210938 1.789062 -4 4 -4 h 80 c 2.210938 0 4 1.789062 4 4 v 8 c 0 2.210938 -1.789062 4 -4 4 z m 0 0" fill="#986a44"/>
    <path d="m 20 88 h 88 v -8 h -88 z m 0 0" fill="#986a44"/>
    <path d="m 51 54 h 24 c 3.3125 0 6 2.6875 6 6 v 22 c 0 3.3125 -2.6875 6 -6 6 h -24 c -3.3125 0 -6 -2.6875 -6 -6 v -22 c 0 -3.3125 2.6875 -6 6 -6 z m 0 0" fill="url(#f)"/>
    <g mask="url(#g)">
        <use transform="matrix(1 0 0 1 -8 -16)" xlink:href="#m"/>
    </g>
    <path d="m 84 69 c 9.386719 0 17 7.613281 17 17 s -7.613281 17 -17 17 s -17 -7.613281 -17 -17 s 7.613281 -17 17 -17 z m 0 0" fill="url(#h)"/>
    <path d="m 63.195312 103.039062 c 1.070313 -1.867187 1.0625 -4.160156 -0.015624 -6.019531 l -13.984376 -24.035156 c -2.324218 -3.980469 -8.070312 -3.980469 -10.386718 0 l -13.992188 24.035156 c -2.332031 4.003907 0.5625 9.035157 5.195313 9.035157 h 27.976562 c 2.148438 0 4.136719 -1.148438 5.207031 -3.015626 z m 0 0" fill="#e01b24"/>
    <path d="m 63.195312 103.039062 c 1.070313 -1.867187 1.0625 -4.160156 -0.015624 -6.019531 l -13.984376 -24.035156 c -2.324218 -3.980469 -8.070312 -3.980469 -10.386718 0 l -13.992188 24.035156 c -2.332031 4.003907 0.5625 9.035157 5.195313 9.035157 h 27.976562 c 2.148438 0 4.136719 -1.148438 5.207031 -3.015626 z m 0 0" fill="url(#i)"/>
    <path d="m 24 108 h 80 v -8 h -80 z m 0 0" fill="#865e3c"/>
    <path d="m 24 104 h 80 v -8 h -80 z m 0 0" fill="#b5835a"/>
    <path d="m 88 42 c 6.628906 0 12 5.371094 12 12 s -5.371094 12 -12 12 s -12 -5.371094 -12 -12 s 5.371094 -12 12 -12 z m 0 0" fill="#deddda"/>
    <path d="m 64 42 c 6.628906 0 12 5.371094 12 12 s -5.371094 12 -12 12 s -12 -5.371094 -12 -12 s 5.371094 -12 12 -12 z m 0 0" fill="#ed333b"/>
    <path d="m 16 42 c 6.628906 0 12 5.371094 12 12 s -5.371094 12 -12 12 s -12 -5.371094 -12 -12 s 5.371094 -12 12 -12 z m 0 0" fill="#ed333b"/>
    <path d="m 40 42 c 6.628906 0 12 5.371094 12 12 s -5.371094 12 -12 12 s -12 -5.371094 -12 -12 s 5.371094 -12 12 -12 z m 0 0" fill="#deddda"/>
    <path d="m 112 42 c 6.628906 0 12 5.371094 12 12 s -5.371094 12 -12 12 s -12 -5.371094 -12 -12 s 5.371094 -12 12 -12 z m 0 0" fill="#ed333b"/>
    <path d="m 10 12 c -3.324219 0 -6 2.675781 -6 6 v 36 h 120 v -36 c 0 -3.324219 -2.675781 -6 -6 -6 z m 0 0" fill="#f66151"/>
    <path d="m 28 12 v 42 h 24 v -42 z m 48 0 v 42 h 24 v -42 z m 0 0" fill="#f6f5f4"/>
    <g mask="url(#p)">
        <g clip-path="url(#t)">
            <g mask="url(#q)">
                <g clip-path="url(#s)">
                    <path d="m 128 80.640625 v 47.359375 h -128 v -47.359375 z m 0 0" fill="url(#r)"/>
                    <path d="m 13.308594 80.640625 l 47.355468 47.359375 h 21.214844 l -47.359375 -47.359375 z m 42.421875 0 l 47.363281 47.359375 h 21.214844 l -47.363282 -47.359375 z m 42.429687 0 l 29.839844 29.839844 v -21.210938 l -8.628906 -8.628906 z m -98.160156 7.90625 v 21.214844 l 18.238281 18.238281 h 21.214844 z m 0 0"/>
                </g>
            </g>
        </g>
    </g>
</svg>
