<svg width="128" height="128" viewBox="0 0 128 128" fill="none" xmlns="http://www.w3.org/2000/svg">
<g clip-path="url(#clip0_19_37)">
<path d="M26 98C29.3125 98 32 100.688 32 104V117C32 120.312 29.3125 123 26 123C22.6875 123 20 120.312 20 117V104C20 100.688 22.6875 98 26 98Z" fill="url(#paint0_linear_19_37)"/>
<path d="M102 98C105.312 98 108 100.688 108 104V117C108 120.312 105.312 123 102 123C98.6875 123 96 120.312 96 117V104C96 100.688 98.6875 98 102 98Z" fill="url(#paint1_linear_19_37)"/>
<path d="M104 116H24C17.3711 116 12 110.629 12 104V44C12 37.3711 17.3711 32 24 32H104C110.629 32 116 37.3711 116 44V104C116 110.629 110.629 116 104 116Z" fill="url(#paint2_linear_19_37)"/>
<path d="M104 104H24C17.3711 104 12 98.6289 12 92V44C12 37.3711 17.3711 32 24 32H104C110.629 32 116 37.3711 116 44V92C116 98.6289 110.629 104 104 104Z" fill="#B5835A"/>
<path d="M20 40H108V72H20V40Z" fill="#63452C"/>
<path d="M20 32H12V64H20V32Z" fill="#865E3C"/>
<path d="M116 32H108V64H116V32Z" fill="#865E3C"/>
<path d="M20 72H108V80H20V72Z" fill="#865E3C"/>
<path d="M104 96H24C21.7891 96 20 94.2109 20 92V84C20 81.7891 21.7891 80 24 80H104C106.211 80 108 81.7891 108 84V92C108 94.2109 106.211 96 104 96Z" fill="#986A44"/>
<path d="M20 88H108V80H20V88Z" fill="#986A44"/>
<path d="M51 54H75C78.3125 54 81 56.6875 81 60V82C81 85.3125 78.3125 88 75 88H51C47.6875 88 45 85.3125 45 82V60C45 56.6875 47.6875 54 51 54Z" fill="url(#paint3_linear_19_37)"/>
<mask id="mask0_19_37" style="mask-type:luminance" maskUnits="userSpaceOnUse" x="-13" y="-13" width="154" height="154">
<path d="M140.8 -12.8H-12.8V140.8H140.8V-12.8Z" fill="black" fill-opacity="0.5"/>
</mask>
<g mask="url(#mask0_19_37)">
<mask id="mask1_19_37" style="mask-type:luminance" maskUnits="userSpaceOnUse" x="-8" y="-16" width="192" height="152">
<path d="M184 -16H-8V136H184V-16Z" fill="white"/>
</mask>
<g mask="url(#mask1_19_37)">
<path d="M51 54H75C78.3125 54 81 56.6875 81 60V68C81 71.3125 78.3125 74 75 74H51C47.6875 74 45 71.3125 45 68V60C45 56.6875 47.6875 54 51 54Z" fill="#8FF0A4"/>
</g>
</g>
<path d="M84 69C93.3867 69 101 76.6133 101 86C101 95.3867 93.3867 103 84 103C74.6133 103 67 95.3867 67 86C67 76.6133 74.6133 69 84 69Z" fill="url(#paint4_radial_19_37)"/>
<path d="M63.1953 103.039C64.2656 101.172 64.2578 98.8789 63.1797 97.0195L49.1953 72.9844C46.8711 69.0039 41.125 69.0039 38.8086 72.9844L24.8164 97.0195C22.4844 101.023 25.3789 106.055 30.0117 106.055H57.9883C60.1367 106.055 62.125 104.906 63.1953 103.039Z" fill="#E01B24"/>
<path d="M63.1953 103.039C64.2656 101.172 64.2578 98.8789 63.1797 97.0195L49.1953 72.9844C46.8711 69.0039 41.125 69.0039 38.8086 72.9844L24.8164 97.0195C22.4844 101.023 25.3789 106.055 30.0117 106.055H57.9883C60.1367 106.055 62.125 104.906 63.1953 103.039Z" fill="url(#paint5_radial_19_37)"/>
<path d="M24 108H104V100H24V108Z" fill="#865E3C"/>
<path d="M24 104H104V96H24V104Z" fill="#B5835A"/>
<path d="M88 42C94.6289 42 100 47.3711 100 54C100 60.6289 94.6289 66 88 66C81.3711 66 76 60.6289 76 54C76 47.3711 81.3711 42 88 42Z" fill="#212121"/>
<path d="M64 42C70.6289 42 76 47.3711 76 54C76 60.6289 70.6289 66 64 66C57.3711 66 52 60.6289 52 54C52 47.3711 57.3711 42 64 42Z" fill="#F5C517"/>
<path d="M16 42C22.6289 42 28 47.3711 28 54C28 60.6289 22.6289 66 16 66C9.37109 66 4 60.6289 4 54C4 47.3711 9.37109 42 16 42Z" fill="#F5C517"/>
<path d="M40 42C46.6289 42 52 47.3711 52 54C52 60.6289 46.6289 66 40 66C33.3711 66 28 60.6289 28 54C28 47.3711 33.3711 42 40 42Z" fill="#212121"/>
<path d="M112 42C118.629 42 124 47.3711 124 54C124 60.6289 118.629 66 112 66C105.371 66 100 60.6289 100 54C100 47.3711 105.371 42 112 42Z" fill="#F5C517"/>
<path d="M10 12C6.67578 12 4 14.6758 4 18V54H124V18C124 14.6758 121.324 12 118 12H10Z" fill="#F8E351"/>
<path d="M28 12V54H52V12H28ZM76 12V54H100V12H76Z" fill="#2A2A2A"/>
</g>
<defs>
<linearGradient id="paint0_linear_19_37" x1="20" y1="110.5" x2="32" y2="110.5" gradientUnits="userSpaceOnUse">
<stop stop-color="#B5835A"/>
<stop offset="1" stop-color="#63452C"/>
</linearGradient>
<linearGradient id="paint1_linear_19_37" x1="96" y1="110.5" x2="108" y2="110.5" gradientUnits="userSpaceOnUse">
<stop stop-color="#B5835A"/>
<stop offset="1" stop-color="#63452C"/>
</linearGradient>
<linearGradient id="paint2_linear_19_37" x1="116" y1="73.9998" x2="12" y2="73.9998" gradientUnits="userSpaceOnUse">
<stop stop-color="#865E3C"/>
<stop offset="0.0576923" stop-color="#B5835A"/>
<stop offset="0.115385" stop-color="#865E3C"/>
<stop offset="0.884615" stop-color="#865E3C"/>
<stop offset="0.942308" stop-color="#B5835A"/>
<stop offset="1" stop-color="#865E3C"/>
</linearGradient>
<linearGradient id="paint3_linear_19_37" x1="78" y1="89.4167" x2="51.5853" y2="51.1441" gradientUnits="userSpaceOnUse">
<stop stop-color="#1A5FB4"/>
<stop offset="1" stop-color="#8FF0A4"/>
</linearGradient>
<radialGradient id="paint4_radial_19_37" cx="0" cy="0" r="1" gradientUnits="userSpaceOnUse" gradientTransform="translate(78.3333 77.4999) rotate(0.19478) scale(36.8335 34)">
<stop stop-color="#F0D7FF"/>
<stop offset="0.275862" stop-color="#DC8ADD"/>
<stop offset="1" stop-color="#1A5FB4"/>
</radialGradient>
<radialGradient id="paint5_radial_19_37" cx="0" cy="0" r="1" gradientUnits="userSpaceOnUse" gradientTransform="translate(40.6653 73.3334) scale(35 30)">
<stop stop-color="#F8E45C"/>
<stop offset="1" stop-color="#F8E45C" stop-opacity="0"/>
</radialGradient>
<clipPath id="clip0_19_37">
<rect width="128" height="128" fill="white"/>
</clipPath>
</defs>
</svg>
